<?xml version="1.0" standalone="no"?><!DOCTYPE svg PUBLIC "-//W3C//DTD SVG 1.1//EN" "http://www.w3.org/Graphics/SVG/1.1/DTD/svg11.dtd"><svg t="1695048531823" class="icon" viewBox="0 0 1024 1024" version="1.1" xmlns="http://www.w3.org/2000/svg" p-id="1177" xmlns:xlink="http://www.w3.org/1999/xlink" width="200" height="200"><path d="M508.778 26.228c-269.053 0-487.942 218.891-487.942 487.942s218.891 487.942 487.942 487.942 487.942-218.877 487.942-487.93-218.891-487.956-487.942-487.956zM687.241 769.57c-172.769 0-429.534-274.05-429.534-417.997 0-57.549 49.616-96.489 91.027-96.489 43.787 0 118.415 126.279 118.415 152.986 0 18.814-8.124 32.126-14.637 42.831-5.066 8.301-8.055 13.489-8.383 19.47 6.718 21.012 85.333 99.396 107.534 107.287 5.899-0.518 13.366-4.41 21.259-8.519 12.37-6.445 27.771-14.473 46.586-14.473 30.078 0 158.748 83.927 158.748 118.429 0.014 65.604-37.37 96.475-91.013 96.475z" fill="#1296db" p-id="1178"></path></svg>