<?xml version="1.0" standalone="no"?><!DOCTYPE svg PUBLIC "-//W3C//DTD SVG 1.1//EN" "http://www.w3.org/Graphics/SVG/1.1/DTD/svg11.dtd"><svg t="1695048926432" class="icon" viewBox="0 0 1024 1024" version="1.1" xmlns="http://www.w3.org/2000/svg" p-id="17912" xmlns:xlink="http://www.w3.org/1999/xlink" width="200" height="200"><path d="M512 0a512 512 0 1 1 0 1023.943111A512 512 0 0 1 512 0z m-0.967111 483.328a133.12 133.12 0 1 0-137.557333-133.063111 135.509333 135.509333 0 0 0 137.557333 133.063111z m56.661333 12.8H464.668444c-95.744 0-173.681778 75.320889-173.681777 167.822222v9.955556c0 48.355556 76.629333 48.355556 173.681777 48.355555H567.751111c93.184 0 173.681778 0 173.681778-48.355555v-9.898667c0-92.558222-77.937778-167.822222-173.681778-167.822222z" fill="#F58A74" p-id="17913"></path></svg>